<svg height='300px' width='300px'  fill="#000000" xmlns="http://www.w3.org/2000/svg" xmlns:xlink="http://www.w3.org/1999/xlink" version="1.1" x="0px" y="0px" viewBox="0 0 90 90" enable-background="new 0 0 90 90" xml:space="preserve"><polygon points="-107.069,57.216 -106.899,57.216 -24.931,57.216 -63.092,39.95 -71.477,44.209 -83.283,31.203 "></polygon><rect x="-43.572" y="36.513" width="1.117" height="13.802"></rect><rect x="-32.635" y="46.632" width="0.678" height="8.37"></rect><g><path d="M-43.015,39.301c3.81,0,6.899-3.09,6.899-6.9c0-3.812-3.09-6.9-6.899-6.9c-3.811,0-6.9,3.089-6.9,6.9   C-49.915,36.211-46.826,39.301-43.015,39.301"></path><path d="M-32.295,48.548c2.496,0,4.521-2.025,4.521-4.521c0-2.497-2.024-4.52-4.521-4.52c-2.497,0-4.523,2.023-4.523,4.52   C-36.818,46.523-34.792,48.548-32.295,48.548"></path></g><g><rect x="8" y="56" width="13" height="7"></rect><rect x="23" y="56" width="44" height="7"></rect><rect x="69" y="56" width="13" height="7"></rect></g><g><rect x="23" y="37" width="7" height="7"></rect><rect x="8" y="37" width="13" height="7"></rect><rect x="69" y="37" width="13" height="7"></rect><rect x="32" y="37" width="7" height="7"></rect><rect x="41" y="37" width="7" height="7"></rect><rect x="50" y="37" width="8" height="7"></rect><rect x="60" y="37" width="7" height="7"></rect></g><g><rect x="8" y="27" width="7" height="8"></rect><rect x="17" y="27" width="8" height="8"></rect><rect x="27" y="27" width="7" height="8"></rect><rect x="36" y="27" width="8" height="8"></rect><rect x="46" y="27" width="8" height="8"></rect><rect x="56" y="27" width="7" height="8"></rect><rect x="65" y="27" width="8" height="8"></rect><rect x="75" y="27" width="7" height="8"></rect></g><g><rect x="8" y="46" width="7" height="8"></rect><rect x="17" y="46" width="8" height="8"></rect><rect x="27" y="46" width="7" height="8"></rect><rect x="36" y="46" width="8" height="8"></rect><rect x="46" y="46" width="8" height="8"></rect><rect x="56" y="46" width="7" height="8"></rect><rect x="65" y="46" width="8" height="8"></rect><rect x="75" y="46" width="7" height="8"></rect></g><g><path d="M148.319,39.766c-0.017,0.014-0.034,0.03-0.051,0.044l-0.709,0.603c-4.314,3.525-9.692,5.456-15.252,5.456   c-2.621,0-5.233-0.455-7.774-1.323c0.138,7.024,2.866,14.007,8.226,19.367c10.456,10.456,27.081,10.968,38.15,1.551L148.319,39.766   L148.319,39.766z M140.363,60.536c-3.363,0.583-6.567-1.673-7.148-5.042c-0.583-3.367,1.675-6.569,5.039-7.15   c3.368-0.583,6.57,1.676,7.152,5.042C145.989,56.751,143.729,59.954,140.363,60.536z M156.326,56.055   c2.747-0.475,5.36,1.367,5.835,4.114c0.476,2.747-1.367,5.36-4.115,5.836c-2.747,0.475-5.36-1.368-5.835-4.115   C151.736,59.142,153.579,56.53,156.326,56.055z"></path><path d="M132.758,24.069c-5.013,5.012-7.715,11.445-8.161,18.002c0.096,0.034,0.185,0.075,0.282,0.107   c7.652,2.767,15.993,1.038,21.871-4.18l0.033-0.03c4.648-4.142,7.314-10.066,7.314-16.253c0-1.806-0.248-3.668-0.738-5.537   c-0.028-0.114-0.085-0.222-0.122-0.333C145.842,15.698,138.4,18.425,132.758,24.069z M139.181,36.132   c-0.556,0.557-2.064-0.05-3.369-1.355c-1.307-1.305-1.913-2.813-1.356-3.37c0.557-0.556,2.065,0.051,3.369,1.356   C139.131,34.067,139.737,35.576,139.181,36.132z M146.215,29.098c-0.556,0.557-2.064-0.05-3.369-1.355   c-1.307-1.305-1.913-2.814-1.356-3.371c0.557-0.556,2.065,0.051,3.369,1.356C146.166,27.033,146.772,28.541,146.215,29.098z"></path><path d="M172.601,24.069c-4.721-4.721-10.701-7.4-16.858-8.071c0.469,1.912,0.718,3.839,0.718,5.716   c0,6.486-2.641,12.71-7.282,17.25l-0.714,0.673l25.688,22.583C183.569,51.152,183.057,34.525,172.601,24.069z M162.073,36.718   c-3.366-0.582-5.625-3.783-5.042-7.15c0.582-3.365,3.782-5.624,7.151-5.041c3.368,0.581,5.623,3.785,5.041,7.149   C168.641,35.042,165.439,37.301,162.073,36.718z M168.858,53.475c-2.748-0.476-4.591-3.089-4.115-5.836   c0.474-2.747,3.086-4.59,5.836-4.115c2.747,0.476,4.589,3.088,4.113,5.835C174.217,52.107,171.604,53.949,168.858,53.475z"></path></g><path fill-rule="evenodd" clip-rule="evenodd" d="M296.871,26.3c-4.956-2.211-8.858-1.788-12.827-0.626  c-6.414,1.877-8.565-2.412-9.308-3.207c-2.111-2.27-1.439-5.325-3.243-6.196c-1.105-0.535-9.539-4.207-9.539-4.207  s-1.776-0.962-1.367-0.896c0.586,0.096,1.516,0.261,1.781-0.028c0.444-0.485,0.417-1.608,0.558-2.377  c0.34-1.87,0.942-6.373-1.769-6.962c-0.87-0.189-3.028-0.638-4.875-0.126c-1.107,0.304-1.882,1.502-1.882,2.821  c0,2.72-0.129,5.241-0.129,5.241s-0.636,0.828-2.25,1.048c-1.517,0.206-7.48,2.719-9.52,3.741  c-2.039,1.019-5.961,13.31-6.302,14.841c-0.341,1.53,6.644,8.446,9.362,9.804c2.72,1.359,2.094,1.125,2.094,1.125l1.998,3.947  l2.369,0.028c0,0-1.532,7.988-1.702,11.389c-0.17,3.398-0.337,7.988-0.337,7.988s-2.39,3.243-2.93,5.608  c-0.992,4.336,0.72,9.731,0.72,12.792c0,0.334-0.003,0.609-0.021,0.899c0,0-0.282,1.449-1.352,2.026  c-1.142,0.617-1.979,0.742-2.156,1.662c-0.063,0.329,0,0.742,0,0.742c0,0,0.39,0.029,2.616,0c2.553-0.033,4.132-0.772,3.939-1.308  c-0.387-1.077-0.487-2.141-0.497-2.919c0.015-2.141,0.695-5.996,2.059-8.114c1.529-2.38,2.325-6.286,1.36-8.669  c-0.769-1.895,1.872-2.889,3.06-4.759c1.189-1.87,2.718-9.688,2.718-9.688s-0.848,10.198,0,11.559  c0.852,1.36,1.022,2.209,1.022,2.209s-2.688,3.487-2.859,5.867c-0.17,2.38,2.481,7.658,2.652,9.529  c0.064,0.699,0.11,1.255,0.143,1.84c-0.005,0.033-0.045,0.275-0.09,0.63c-0.094,0.734-0.503,1.386-0.026,2.516  c0,0,2.09,0.125,2.968,0.133c1.322,0.012,5.081,0.186,6.379,0.186c0,0,0.137-0.937-0.42-1.308c-0.556-0.371-5.406-0.883-5.992-2.753  c-0.278-2.578-0.037-7.765,0.644-10.351c0.85-3.228,0.679-5.271,0.679-5.271s1.701-2.378,1.701-3.737c0-1.36,0.51-3.743,0.51-3.743  s1.189,0.17,3.229,1.53c2.041,1.361,7.436,2.76,7.436,2.76s-1.688-4.807,4.287-6.364c2.513-0.655-4.648-11.361-0.87-14.767  c2.738-2.471,5.653,0.997,6.844-2.912c1.189-3.911,1.235-6.135,5.774-6.135c2.885,0,8.837,2.034,8.837,2.034  S301.956,28.567,296.871,26.3z M249.728,37.469c-1.444-1.018-2.209-3.907-2.975-5.438c-0.766-1.529-1.501-1.328-1.501-1.328  l0.655-0.674c0.936-0.738,0.9-1.96,0.874-2.275c0.088,2.521,1.681,3.616,2.354,5.213c0.679,1.613,1.274,4.502,1.274,4.502  S251.172,38.491,249.728,37.469z"></path></svg>